<svg height="512pt" viewBox="-81 0 512 512" width="512pt" xmlns="http://www.w3.org/2000/svg"><path d="m298.445312 51.492188c-32.746093-32.929688-76.34375-51.214844-122.769531-51.48828175-.351562-.00390625-.699219-.00390625-1.046875-.00390625-46.238281 0-89.863281 18.074219-122.949218 50.964844-33.328126 33.132812-51.679688 77.050781-51.679688 123.664062 0 60.945313 31.703125 117.183594 83.3125 148.871094v128.453125h30.054688c.664062 33.222656 27.878906 60.046875 61.257812 60.046875s60.589844-26.824219 61.253906-60.046875h30.054688v-128.453125c51.613281-31.6875 83.3125-87.929688 83.3125-148.875.003906-46.460938-18.039063-90.191406-50.800782-123.132812zm-123.820312 430.507812c-16.835938 0-30.609375-13.367188-31.261719-30.046875h62.523438c-.652344 16.679687-14.425781 30.046875-31.261719 30.046875zm61.285156-60.046875h-122.597656v-30.050781h122.621094v30.050781zm7.84375-120.265625-7.820312 4.265625v55.949219h-46.308594v-104.664063l56.273438-56.273437-21.214844-21.214844-50.058594 50.0625-50.0625-50.0625-21.210938 21.214844 56.273438 56.273437v104.664063h-46.3125v-55.949219l-7.820312-4.265625c-46.5625-25.390625-75.492188-74.078125-75.492188-127.058594-.003906-38.570312 15.210938-74.929687 42.828125-102.390625 27.425781-27.257812 63.542969-42.238281 101.804687-42.238281.285157 0 .578126 0 .863282.003906 38.449218.226563 74.558594 15.371094 101.679687 42.640625 27.128907 27.285157 42.070313 63.5 42.070313 101.980469.003906 52.980469-28.925782 101.671875-75.492188 127.0625zm0 0"/></svg>